<svg width="42" height="43" viewBox="0 0 42 43" fill="none" xmlns="http://www.w3.org/2000/svg">
<mask id="mask0_181_473" style="mask-type:luminance" maskUnits="userSpaceOnUse" x="0" y="0" width="42" height="43">
<path d="M41.6876 0.811035H0.0403442V42.4583H41.6876V0.811035Z" fill="white"/>
</mask>
<g mask="url(#mask0_181_473)">
<path d="M20.8653 1.27222C9.61973 1.27222 0.503693 10.3883 0.503693 21.6338C0.503693 32.8794 9.61973 41.9954 20.8653 41.9954C32.1109 41.9954 41.2269 32.8794 41.2269 21.6338C41.2269 10.3883 32.1109 1.27222 20.8653 1.27222Z" fill="#07111E"/>
</g>
<path fill-rule="evenodd" clip-rule="evenodd" d="M32.8183 16.0526C29.7321 16.0526 27.2309 18.5547 27.2309 21.64C27.2309 24.7253 29.733 27.2274 32.8183 27.2274C35.614 27.2242 37.977 25.1548 38.3495 22.3843H35.1609C34.8453 23.3775 33.9164 24.0974 32.8191 24.0974C31.4615 24.0974 30.3617 22.9968 30.3617 21.64C30.3617 20.2824 31.4623 19.1826 32.8191 19.1826C33.9164 19.1826 34.8461 19.9025 35.1609 20.8957H38.3504C37.977 18.1252 35.614 16.0558 32.8183 16.0526ZM8.88084 24.0982C7.52324 24.0982 6.42349 22.9976 6.42349 21.6408C6.42349 20.284 7.52405 19.1835 8.88084 19.1835C10.2384 19.1835 11.3382 20.284 11.3382 21.6408C11.3382 22.9976 10.2376 24.0982 8.88084 24.0982ZM14.4691 27.1339V21.6408C14.4691 18.5547 11.967 16.0534 8.88166 16.0534C5.79634 16.0534 3.29425 18.5555 3.29425 21.6408C3.29425 24.7261 5.79634 27.2282 8.88166 27.2282C9.79188 27.2266 10.7363 26.8402 11.4016 26.1968V27.1339H14.4691ZM20.8374 19.1835C22.195 19.1835 23.2947 20.284 23.2947 21.6408C23.2947 22.9984 22.1941 24.0982 20.8374 24.0982C19.4797 24.0982 18.38 22.9976 18.38 21.6408C18.38 20.2832 19.4797 19.1835 20.8374 19.1835ZM15.2499 13.3032V21.6408C15.2499 24.7269 17.752 27.2282 20.8374 27.2282C23.9235 27.2282 26.4248 24.7261 26.4248 21.6408C26.4248 18.5555 23.9235 16.0534 20.8374 16.0534C19.9857 16.055 19.1031 16.3259 18.38 16.8156V13.3032H15.2499Z" fill="#F0F0F0"/>
</svg>
