<svg width="81" height="43" viewBox="0 0 81 43" fill="none" xmlns="http://www.w3.org/2000/svg">
<path d="M46.8119 25.0854L46.6159 25.562H47.0283L46.8119 25.0854ZM47.2462 26.106L47.116 25.7596H46.5516L46.4215 26.0857H46.1613L46.8338 24.6104H46.8777L47.5503 26.0857H47.2462" fill="#231F20"/>
<path d="M60.936 26.1251C60.4798 26.1251 60.1552 25.799 60.1552 25.3882C60.1552 24.9539 60.4813 24.6294 60.936 24.6294C61.11 24.6294 61.2825 24.6952 61.4126 24.7595L61.3264 24.9759C61.2182 24.91 61.0661 24.8677 60.936 24.8677C60.6099 24.8677 60.4155 25.0841 60.4155 25.3882C60.4155 25.6924 60.6114 25.9087 60.936 25.9087C61.0661 25.9087 61.2182 25.8648 61.3264 25.8005L61.3922 26.0169C61.2825 26.0608 61.1084 26.1251 60.936 26.1251Z" fill="#231F20"/>
<path d="M62.4105 24.8458C62.1283 24.8458 61.9338 25.0621 61.9338 25.3663C61.9338 25.6704 62.1298 25.8868 62.4105 25.8868C62.6927 25.8868 62.8871 25.6704 62.8871 25.3663C62.8871 25.0621 62.6927 24.8458 62.4105 24.8458ZM62.4105 26.1251C61.9981 26.1251 61.694 25.799 61.694 25.3882C61.694 24.9539 62.0201 24.6294 62.4308 24.6294C62.8416 24.6294 63.1473 24.9555 63.1473 25.3882C63.1473 25.8005 62.8228 26.1251 62.4105 26.1251Z" fill="#231F20"/>
<path d="M64.689 26.1047L64.667 25.2361L64.2108 25.9307H64.1889L63.7342 25.2361L63.7122 26.1047H63.4739L63.5382 24.6294H63.5602L64.2108 25.5826L64.8395 24.6294H64.8834L64.9492 26.1047H64.689Z" fill="#231F20"/>
<path d="M65.8391 24.8676C65.7732 24.8676 65.7309 24.8676 65.687 24.8895V25.41C65.7309 25.41 65.7732 25.41 65.8171 25.41C66.0335 25.41 66.1432 25.3019 66.1432 25.1278C66.1432 24.9977 66.0351 24.8676 65.8391 24.8676ZM65.8171 25.6264C65.7732 25.6264 65.7309 25.6264 65.6651 25.6264V26.103H65.4268V24.6716C65.5569 24.6497 65.6651 24.6497 65.7952 24.6497C66.1856 24.6497 66.4019 24.866 66.4019 25.1482C66.3816 25.432 66.1856 25.6264 65.8171 25.6264Z" fill="#231F20"/>
<path d="M70.5255 25.4963V26.1046H70.2652V25.4963L69.7667 24.6497H70.0489L70.3954 25.258L70.7638 24.6497H71.024L70.5255 25.4963Z" fill="#231F20"/>
<path d="M67.1616 25.0841L66.9656 25.5607H67.3779L67.1616 25.0841ZM67.5959 26.1047L67.4657 25.7786H66.9013L66.7712 26.1047H66.5109L67.1835 24.6294H67.2274L67.9 26.1047H67.5959Z" fill="#231F20"/>
<path d="M69.3948 26.1251L68.4839 25.1719V26.1047H68.2236V24.6294H68.2675L69.1565 25.5622V24.6498H69.4167V26.1251H69.3948Z" fill="#231F20"/>
<path d="M49.7611 25.3221V25.9508C49.609 26.059 49.435 26.1029 49.2186 26.1029C48.8063 26.1029 48.4598 25.7987 48.4598 25.366C48.4598 24.9098 48.8282 24.6072 49.2186 24.6072C49.435 24.6072 49.587 24.673 49.7391 24.7593L49.6309 24.9552C49.5228 24.8894 49.3707 24.8251 49.2405 24.8251C48.9144 24.8251 48.72 25.0634 48.72 25.3456C48.72 25.6498 48.9583 25.8661 49.2405 25.8661C49.3707 25.8661 49.4569 25.8442 49.5447 25.8003V25.54H49.1982V25.3237H49.7611" fill="#231F20"/>
<path d="M50.739 25.0854L50.543 25.562H50.9553L50.739 25.0854ZM51.1513 26.106L51.0212 25.7596H50.4568L50.3047 26.0857H50.0444L50.717 24.6104H50.7609L51.4335 26.0857H51.1513" fill="#231F20"/>
<path d="M52.9501 26.1251L52.0392 25.1719V26.1047H51.8009V24.6294H51.8229L52.7338 25.5622V24.6498H52.9721V26.1251H52.9501Z" fill="#231F20"/>
<path d="M54.6217 26.1251L53.7108 25.1719V26.1047H53.4709V24.6294H53.5148L54.4037 25.5622V24.6498H54.6436V26.1251H54.6217Z" fill="#231F20"/>
<path d="M55.142 26.1046V24.6497H56.0309V24.8676H55.4022V25.258H55.9666V25.4743H55.4022V25.8647H56.0309V26.1046H55.142Z" fill="#231F20"/>
<path d="M57.1161 24.8676V26.1046H56.8778V24.8676H56.4012V24.6497H57.5723V24.8676H57.1161Z" fill="#231F20"/>
<path d="M58.5919 24.8676V26.1046H58.3316V24.8676H57.877V24.6497H59.0481V24.8676H58.5919Z" fill="#231F20"/>
<path d="M79.3103 21.6135V20.7669H79.0078V20.6587H79.7666V20.7669H79.4405V21.6135H79.3103Z" fill="#231F20"/>
<path d="M79.8956 21.612V20.6353H80.0916L80.3299 21.3298C80.3519 21.3956 80.3738 21.438 80.3738 21.4819C80.3958 21.438 80.3958 21.3956 80.4177 21.3298L80.656 20.6572H80.83V21.6339H80.6999V20.8312L80.4177 21.6339H80.3095L80.0273 20.8093V21.6339H79.8972" fill="#231F20"/>
<path d="M42.2988 21.6347C42.2988 33.133 32.9923 42.4395 21.494 42.4395C9.9957 42.4395 0.687622 33.133 0.687622 21.6347C0.687622 10.1363 9.99414 0.829834 21.4924 0.829834C32.9908 0.829834 42.2988 10.1363 42.2988 21.6347Z" fill="#0C0C0C"/>
<path d="M45.2499 10.0064V5.27637H47.3759V9.39814C47.3759 10.2228 47.4621 11.0036 48.5251 11.0036C49.5881 11.0036 49.6743 10.2009 49.6743 9.39814V5.27637H51.8002V10.0064C51.8002 11.8502 50.6291 12.8489 48.5235 12.8489C46.3772 12.8708 45.2499 11.8502 45.2499 10.0064Z" fill="#231F20"/>
<path d="M52.4081 11.7859L53.4272 10.3765C53.8175 10.8327 54.4462 11.2451 55.1847 11.2451C55.7271 11.2451 56.0736 11.0067 56.0736 10.5725C56.0736 10.052 55.597 9.89988 54.7943 9.66157C53.7094 9.33546 52.7546 8.77262 52.7546 7.49172C52.7546 6.08226 53.9038 5.14941 55.5312 5.14941C56.66 5.14941 57.527 5.4959 58.0694 6.01798L57.1146 7.42744C56.8105 7.08095 56.29 6.7768 55.6613 6.7768C55.1188 6.7768 54.8805 6.99316 54.8805 7.29731C54.8805 7.75354 55.4449 7.88367 56.0517 8.07808C57.2667 8.46846 58.1996 9.01093 58.1996 10.3781C58.1996 11.8095 57.1805 12.8724 55.3148 12.8724C53.9053 12.8709 52.8643 12.2845 52.4081 11.7859Z" fill="#231F20"/>
<path d="M63.0395 9.9406L62.4751 8.13919C62.3669 7.7927 62.2587 7.33647 62.2148 7.03231H62.149C62.1051 7.35842 62.0188 7.79113 61.8887 8.13919L61.3243 9.9406H63.0395ZM61.0217 5.27637H63.364L66.1187 12.7172H63.9065L63.56 11.6542H60.7615L60.415 12.7172H58.2451L61.0217 5.27637Z" fill="#231F20"/>
<path d="M47.1144 15.9299H45.2926V14.1943H51.0841V15.9299H49.2403V21.6352H47.1144V15.9299Z" fill="#231F20"/>
<path d="M57.2035 17.9252C57.2035 16.58 56.3349 15.9074 55.2939 15.9074C54.2748 15.9074 53.4062 16.602 53.4062 17.9252C53.4062 19.2484 54.2748 19.921 55.2939 19.921C56.3349 19.921 57.2035 19.2484 57.2035 17.9252ZM51.2364 17.9252C51.2364 16.1034 52.5596 14.0417 55.3158 14.0417C58.0924 14.0417 59.4156 16.0815 59.4156 17.9252C59.4156 19.747 58.0924 21.7867 55.3158 21.7867C52.5392 21.7867 51.2364 19.747 51.2364 17.9252Z" fill="#231F20"/>
<path d="M62.3004 19.9215H62.7566C64.1237 19.9215 64.8606 19.2709 64.8606 17.9257C64.8606 16.5805 64.1237 15.9299 62.7566 15.9299H62.3004V19.9215ZM60.1744 14.1943H62.9087C65.5332 14.1943 67.0524 15.5834 67.0524 17.9038C67.0524 20.1818 65.5128 21.6132 62.9087 21.6132H60.1744V14.1943Z" fill="#231F20"/>
<path d="M71.5225 18.8805L70.9581 17.0791C70.8499 16.7326 70.7417 16.2764 70.6978 15.9722H70.632C70.5881 16.2983 70.5018 16.7311 70.3717 17.0791L69.8073 18.8805H71.5225ZM69.5047 14.1943H71.847L74.6032 21.6352H72.391L72.0446 20.5722H69.246L68.8995 21.6352H66.7297L69.5047 14.1943Z" fill="#231F20"/>
<path d="M75.927 18.9887L73.1505 14.1943H75.4724L76.4711 16.0161C76.6874 16.4065 76.9696 16.9929 77.0355 17.4052H77.0794C77.1452 17.0148 77.4478 16.4285 77.6438 16.0161L78.6425 14.1943H80.9597L78.1831 18.9887V21.6352H75.927V18.9887Z" fill="#231F20"/>
</svg>
