<svg width="76" height="36" viewBox="0 0 76 36" fill="none" xmlns="http://www.w3.org/2000/svg">
<path d="M75.0787 35.5616C71.7054 35.5616 68.2698 35.5616 64.937 35.5616C64.8356 35.5616 64.6734 35.1147 64.6328 35.0256C63.2308 32.2583 61.849 29.491 60.4455 26.7237C58.9623 29.6691 57.5183 32.6607 56.0351 35.6061C52.7226 35.6061 49.4304 35.5838 46.1165 35.6061C46.4829 34.8475 46.8885 34.0888 47.2752 33.3302C50.0387 28.0851 52.7834 22.7525 55.547 17.485C52.5995 11.8391 49.6129 6.21544 46.6451 0.569516C46.6451 0.569516 46.6248 0.524984 46.6451 0.54725C50.0387 0.54725 53.4338 0.54725 56.8274 0.54725C58.0875 3.04736 59.3071 5.59042 60.5266 8.11279C61.807 5.61268 63.0468 3.06963 64.3069 0.54725C67.5992 0.54725 70.8711 0.54725 74.1648 0.54725C74.1648 0.591781 74.1445 0.636312 74.1242 0.680843C71.2578 6.23771 68.3118 11.7946 65.4251 17.3514C68.6565 23.3997 71.9082 29.4926 75.0787 35.5616Z" fill="#07111E"/>
<path d="M50.4454 14.1153C50.709 15.2763 50.8524 16.5486 50.8524 17.8862C50.8524 22.0594 49.7545 25.1607 48.2105 27.6831C47.9469 28.1077 47.6819 28.5307 47.398 28.9108C46.5652 30.0718 45.5687 31.1199 44.4302 31.9899C43.6785 32.5704 42.8862 33.1063 42.0114 33.5516C40.2834 34.4439 38.1702 35.1357 35.7514 35.1357C31.9711 35.1357 29.1872 33.8634 26.9306 32.1457C24.674 30.4042 22.907 28.1061 21.7077 25.2052C20.8951 23.2633 20.3867 21.0097 20.3259 18.287C20.3056 16.9256 20.4476 15.5865 20.6721 14.4477C21.2413 11.5246 22.3595 9.24711 23.7615 7.26229C25.1636 5.29814 26.9523 3.75863 29.1278 2.59764C29.9809 2.15073 30.9166 1.74995 31.9522 1.48117C32.9893 1.19172 34.1263 1.01201 35.3661 1.01201H35.3864C36.5857 0.945208 37.8863 1.16786 38.8828 1.41438C39.9199 1.6593 40.8947 2.06167 41.7695 2.48631C44.4519 3.80316 46.4435 5.78957 48.0498 8.2881C49.1448 9.89758 49.937 11.8395 50.4454 14.1153ZM38.2919 25.7205C38.3933 25.2959 38.3527 24.7392 38.3527 24.181C38.3527 19.8742 38.3527 15.6342 38.3527 11.3035C38.3527 10.7453 38.2919 10.3222 38.1499 9.91985C38.008 9.56201 37.8038 9.22802 37.5604 8.93857C37.0926 8.40261 36.3814 7.93503 35.4675 8.00182C35.0402 8.04636 34.6752 8.17995 34.3493 8.4042C33.7598 8.80657 33.3123 9.43 33.1298 10.2793C33.0284 10.7039 33.0487 11.2383 33.0487 11.7965C33.0487 16.0588 33.0487 20.3656 33.0487 24.674C33.0487 24.9412 33.0284 25.21 33.0689 25.4549C33.1501 26.1245 33.4354 26.6827 33.8004 27.0835C34.2682 27.5972 34.9794 28.0425 35.9136 27.9312C37.1332 27.796 38.008 26.926 38.2919 25.7205Z" fill="#07111E"/>
<path d="M20.7723 10.076C17.1745 10.076 13.5984 10.076 10.0006 10.076C9.96002 11.5487 10.0006 13.1773 9.9803 14.6516C12.8872 14.6738 15.8536 14.6516 18.7808 14.6516C18.7808 17.8435 18.7808 21.0339 18.7808 24.2481C15.8333 24.2481 12.8467 24.2258 9.91946 24.2481C9.91946 28.0412 9.93974 31.7913 9.93974 35.5844V35.6067C6.95169 35.6067 3.9448 35.6067 0.956751 35.6067H0.936473C0.916195 23.9347 0.916195 12.1737 0.936473 0.501758V0.479492C7.35869 0.479492 13.7606 0.479492 20.1828 0.479492H20.2031C20.3871 3.66984 20.5696 6.88404 20.7723 10.076Z" fill="#07111E"/>
</svg>
